<?xml version="1.0" standalone="no"?><!DOCTYPE svg PUBLIC "-//W3C//DTD SVG 1.1//EN" "http://www.w3.org/Graphics/SVG/1.1/DTD/svg11.dtd">
<svg class="icon" height="24" p-id="22636" t="1594978959789" version="1.1" viewBox="0 0 1024 1024" width="24" xmlns="http://www.w3.org/2000/svg">
	<defs>
		<style type="text/css"></style>
	</defs>
	<path
		d="M817.570909 534.341818c12.567273 0 22.574545-10.007273 22.574546-22.574545 0-39.796364-6.981818-78.661818-20.945455-115.432728-4.421818-11.636364-17.454545-17.687273-29.090909-13.265454-11.636364 4.421818-17.687273 17.454545-13.265455 29.090909 11.869091 31.883636 17.92 65.396364 17.92 99.607273 0.232727 12.567273 10.472727 22.574545 22.807273 22.574545zM511.301818 182.923636c-42.356364 0-83.781818 7.912727-122.88 23.738182-11.636364 4.654545-17.221818 17.92-12.567273 29.323637 4.654545 11.636364 17.92 17.221818 29.323637 12.567272C439.156364 235.054545 474.763636 228.072727 511.301818 228.072727c73.774545 0 143.592727 28.16 196.654546 79.36 4.421818 4.189091 10.007273 6.283636 15.592727 6.283637 5.818182 0 11.869091-2.327273 16.290909-6.981819 8.610909-9.076364 8.378182-23.272727-0.698182-31.883636-61.207273-59.345455-142.196364-91.927273-227.84-91.927273z"
		p-id="22637"></path>
	<path
		d="M844.8 795.927273c67.723636-79.127273 104.494545-178.967273 104.494545-284.16 0-241.570909-196.421818-437.992727-437.992727-437.992728-241.570909 0-437.992727 196.421818-437.992727 437.992728s196.421818 437.992727 437.992727 437.992727c65.163636 0 128-13.963636 186.647273-41.658182 17.454545-8.145455 24.901818-29.090909 16.756364-46.545454-8.145455-17.454545-29.090909-24.901818-46.545455-16.756364-49.105455 23.272727-101.934545 34.909091-156.858182 34.909091-202.938182 0-368.174545-165.236364-368.174545-368.174546s165.236364-368.174545 368.174545-368.174545c202.938182 0 368.174545 165.236364 368.174546 368.174545 0 96.349091-37.003636 187.578182-104.261819 256.698182-11.869091 12.101818-13.032727 30.72-3.723636 43.985455 1.163636 6.749091 4.421818 13.265455 9.541818 18.385454l80.058182 80.058182c6.749091 6.749091 15.825455 10.24 24.669091 10.24s17.92-3.490909 24.669091-10.24c13.730909-13.730909 13.730909-35.84 0-49.338182L844.8 795.927273z"
		p-id="22638"></path>
</svg>