<?xml version="1.0" standalone="no"?><!DOCTYPE svg PUBLIC "-//W3C//DTD SVG 1.1//EN" "http://www.w3.org/Graphics/SVG/1.1/DTD/svg11.dtd">
<svg class="icon" height="24" p-id="2862" t="1594948335156" version="1.1" viewBox="0 0 1024 1024" width="24" xmlns="http://www.w3.org/2000/svg">
	<defs>
		<style type="text/css"></style>
	</defs>
	<path
		d="M547.328 664.064l-165.376-92.672c4.096-15.36 6.656-31.232 6.656-48.128 0-13.824-1.536-27.136-4.608-39.936L689.152 312.32c32.256 32.768 76.8 53.248 126.464 53.248 97.28 0 176.64-78.848 176.64-176.64S912.896 12.8 815.616 12.8s-176.64 79.36-176.64 176.64c0 17.408 2.56 33.792 7.168 49.664l-301.056 168.96c-32.256-36.864-79.872-60.416-132.608-60.416-97.792-0.512-176.64 78.336-176.64 176.128s78.848 176.64 176.64 176.64c50.176 0 95.232-20.992 127.488-54.272l166.4 93.184c6.656 3.584 13.824 5.632 20.992 5.632 14.848 0 29.696-7.68 37.376-22.016 10.752-20.992 3.072-47.104-17.408-58.88z m268.288-565.76c50.176 0 91.136 40.96 91.136 91.136s-40.96 91.136-91.136 91.136-91.136-40.96-91.136-91.136 40.96-91.136 91.136-91.136zM212.48 614.4c-50.176 0-91.136-40.96-91.136-91.136s40.96-91.136 91.136-91.136 91.136 40.96 91.136 91.136-40.96 91.136-91.136 91.136z m781.824 190.976c-12.8-12.8-28.672-12.8-45.568-4.096l-115.712 98.816V722.944c0-16.896-12.8-32.768-32.768-32.768s-32.768 12.8-32.768 32.768v177.152L651.776 801.28c-12.8-12.8-32.768-8.192-45.568 4.096-12.8 12.8-8.192 32.768 4.096 45.568l164.352 144.384c4.096 4.096 12.8 8.192 20.48 8.192s16.896-4.096 20.48-8.192l164.352-144.384c22.528-11.776 22.528-32.768 14.336-45.568z"
		fill="#ffffff" p-id="2863"></path>
</svg>