<?xml version="1.0" standalone="no"?><!DOCTYPE svg PUBLIC "-//W3C//DTD SVG 1.1//EN" "http://www.w3.org/Graphics/SVG/1.1/DTD/svg11.dtd">
<svg class="icon" height="24" p-id="4942" t="1594948522431" version="1.1" viewBox="0 0 1024 1024" width="24" xmlns="http://www.w3.org/2000/svg">
	<defs>
		<style type="text/css"></style>
	</defs>
	<path
		d="M512 1018.587429A506.587429 506.587429 0 1 1 512 5.412571a506.587429 506.587429 0 1 1 0 1013.174858z m0-59.611429A446.976 446.976 0 1 0 512 65.097143 446.976 446.976 0 1 0 512 958.902857z m5.924571-352.182857c87.990857-87.259429 116.370286-114.907429 204.361143-202.24 8.996571-8.923429 19.163429-13.750857 32.182857-10.971429a32.182857 32.182857 0 0 1 18.212572 52.077715c-1.755429 2.048-3.657143 3.876571-5.632 5.851428-96.036571 95.305143-132.608 130.925714-228.644572 226.304-17.481143 17.261714-35.328 17.261714-52.809142 0-96.548571-95.817143-133.485714-132.022857-230.180572-227.693714-9.508571-9.508571-13.824-20.333714-10.459428-33.353143a32.475429 32.475429 0 0 1 51.785142-16.749714c2.194286 1.755429 4.315429 3.949714 6.363429 5.924571C390.582857 492.763429 418.523429 520.045714 506.002286 606.793143c1.828571 1.901714 3.291429 4.242286 5.924571 7.899428 2.779429-3.584 4.169143-5.997714 5.997714-7.899428z"
		fill="#999999" p-id="4943"></path>
</svg>