<?xml version="1.0" standalone="no"?><!DOCTYPE svg PUBLIC "-//W3C//DTD SVG 1.1//EN" "http://www.w3.org/Graphics/SVG/1.1/DTD/svg11.dtd">
<svg class="icon" height="24" p-id="6669" t="1594960750279" version="1.1" viewBox="0 0 1074 1024" width="25.171875" xmlns="http://www.w3.org/2000/svg">
	<defs>
		<style type="text/css"></style>
	</defs>
	<path
		d="M1034.943835 646.378949a37.588431 37.588431 0 0 0-37.551495-37.551495h-315.186321a37.551495 37.551495 0 0 0 0 75.102991h315.186321a37.588431 37.588431 0 0 0 37.551495-37.551496zM1034.943835 778.116982a37.588431 37.588431 0 0 0-37.551495-37.551495h-315.186321a37.551495 37.551495 0 0 0 0 75.102991h315.186321a37.588431 37.588431 0 0 0 37.551495-37.551496zM1034.943835 909.855015a37.588431 37.588431 0 0 0-37.551495-37.551495h-315.186321a37.551495 37.551495 0 0 0 0 75.10299h315.186321a37.588431 37.588431 0 0 0 37.551495-37.551495z"
		p-id="6670"></path>
	<path
		d="M579.031746 909.030113a40.173944 40.173944 0 0 0-40.14932-40.173944h-0.62791c-57.299888 0-115.843285 40.494055-145.638242 64.625508l-9.603334 7.781163-137.894015-79.953906 1.896043-12.139598c5.909744-37.822359 11.536312-108.751593-17.162881-158.824357-29.548718-51.48864-95.836341-82.145435-132.772238-95.811717l-10.009628-3.69359-1.514371-10.575978c-2.265402-15.833188-6.069799-45.554273-6.0698-68.380658s3.792085-52.584405 6.057488-68.343721l1.514371-10.563667 9.997316-3.693589c36.935897-13.703218 103.186584-44.323076 132.735303-95.836341 28.933119-49.925021 23.220367-120.891191 17.236751-158.738174l-1.920666-12.15191 137.894016-80.027777 9.652581 7.916594c29.413286 24.131453 87.513452 64.588572 145.62593 64.588572 57.262952 0 115.818661-40.457119 145.675178-64.687068l9.603333-7.781162 137.894016 80.027777-1.957603 12.188846c-5.909744 37.748487-11.597872 108.566913 17.236752 158.725861 29.634901 51.525576 95.885589 82.182371 132.747614 95.848653l10.009628 3.69359 1.514372 10.563667c1.31738 8.987735 2.745568 19.785329 3.878269 30.890722a39.952329 39.952329 0 0 0 39.730713 35.864756 39.940017 39.940017 0 0 0 39.755338-43.892158c-2.462393-24.882483-6.020551-46.78547-7.030133-52.818333v-0.221615c-4.309188-25.030226-24.254572-47.782739-48.583016-55.329974-32.269662-10.403611-86.269944-36.258739-102.706418-64.834811-18.78806-32.614397-9.320158-100.330208-4.530804-121.482166 5.798936-25.670448-4.924786-54.578944-25.978247-70.289012l-0.332423-0.246239L723.327984 7.178627l-3.69359-1.735987A66.275311 66.275311 0 0 0 693.015924 0.000751c-17.840038 0-35.052166 6.562278-47.265636 17.987782-15.820876 14.774359-69.52567 56.856658-107.348029 56.856657-37.095953 0-91.219354-42.082299-107.286469-56.856657C418.877697 6.550717 401.628633 0.000751 383.776282 0.000751a66.336871 66.336871 0 0 0-26.643093 5.540385l-0.357047 0.160055-161.742294 93.570939-3.435038 2.351586-0.172368 0.135431a70.486004 70.486004 0 0 0-25.916687 69.858094l0.098495 0.480166c6.155983 26.409166 13.112243 90.849995-4.580051 121.408294C142.338635 326.144722 78.956636 351.87673 58.235598 358.278952c-24.316132 7.522611-44.261517 30.31206-48.472209 55.403846C9.357094 416.071319 0 470.884191 0 512.178524c0 32.88526 5.946679 74.930623 9.591021 97.030601l0.160056 0.997269v0.615599A73.625555 73.625555 0 0 0 57.866239 665.757983l0.283175 0.098496c20.85647 6.697709 84.521644 33.020692 102.854161 64.884059C179.754699 763.342623 170.372981 831.058435 165.60825 852.062648l-0.086183 0.430919a71.15085 71.15085 0 0 0 25.855128 69.919653l0.393983 0.307799 161.963908 94.100354 3.69359 1.735987a66.287623 66.287623 0 0 0 26.61847 5.441889c17.85235 0 35.064478-6.537654 47.265636-17.950846 15.820876-14.774359 69.52567-56.856658 107.348029-56.856658h0.147743a40.173944 40.173944 0 0 0 40.21088-40.173944z"
		p-id="6671"></path>
	<path
		d="M530.424106 737.979974h-1.62518a226.540169 226.540169 0 0 1-216.936835-226.380113c0-124.917204 101.622965-226.540169 226.540168-226.540168a226.540169 226.540169 0 0 1 223.868472 191.734241 38.167094 38.167094 0 0 1-75.435413 11.64712c-11.179265-72.431294-75.004495-127.047174-148.433059-127.047174a150.205981 150.205981 0 0 0-6.414534 300.276531 38.167094 38.167094 0 0 1-1.563619 76.334187z"
		p-id="6672"></path>
</svg>