<?xml version="1.0" standalone="no"?><!DOCTYPE svg PUBLIC "-//W3C//DTD SVG 1.1//EN" "http://www.w3.org/Graphics/SVG/1.1/DTD/svg11.dtd">
<svg class="icon" height="24" p-id="4556" t="1594954548466" version="1.1" viewBox="0 0 1024 1024" width="24" xmlns="http://www.w3.org/2000/svg">
	<defs>
		<style type="text/css"></style>
	</defs>
	<path
		d="M512 64c247.424 0 448 200.576 448 448S759.424 960 512 960 64 759.424 64 512 264.576 64 512 64z m154.15 285.365c-7.03-7.029-18.427-7.029-25.457 0L512 478.058 383.307 349.365l-0.266-0.26c-7.048-6.768-18.249-6.681-25.19 0.26l-8.486 8.486-0.26 0.265c-6.768 7.048-6.681 18.249 0.26 25.19L478.058 512 349.365 640.693c-7.029 7.03-7.029 18.427 0 25.456l8.486 8.486c7.03 7.029 18.426 7.029 25.456 0L512 545.942l128.693 128.693 0.266 0.26c7.048 6.768 18.249 6.681 25.19-0.26l8.486-8.486 0.26-0.265c6.768-7.048 6.681-18.249-0.26-25.19L545.942 512l128.693-128.693c7.029-7.03 7.029-18.427 0-25.456z"
		fill="#000000" p-id="4557"></path>
</svg>