<?xml version="1.0" standalone="no"?><!DOCTYPE svg PUBLIC "-//W3C//DTD SVG 1.1//EN" "http://www.w3.org/Graphics/SVG/1.1/DTD/svg11.dtd">
<svg class="icon" height="24" p-id="3811" t="1594948904217" version="1.1" viewBox="0 0 1448 1024" width="33.9375" xmlns="http://www.w3.org/2000/svg">
	<defs>
		<style type="text/css"></style>
	</defs>
	<path
		d="M942.238946 825.833087c-66.657707 46.78941-144.840747 70.098105-224.571966 69.151996-10.579223-0.17202-20.986427-0.946109-31.39363-1.720199-4.214487-0.43005-8.428975-1.118129-12.643462-1.720199-8.256955-1.032119-16.25588-2.064239-24.254804-3.698428-4.902567-0.860099-9.805134-2.236259-14.535681-3.354388-7.826905-1.720199-15.5678-3.440398-23.222685-5.676656-3.612418-1.376159-7.052815-2.494288-10.665233-3.956457-8.859024-2.752318-17.632039-5.848676-26.061013-9.375084-1.892219-0.860099-3.784438-1.548179-5.676657-2.322269-9.891144-4.558527-19.696277-9.203064-29.243381-14.191641-0.34404-0.25803-0.860099-0.43005-1.204139-0.688079-32.167719-17.718049-61.497111-39.478565-87.300094-65.453568-0.43005-0.43005-0.77409-0.946109-1.290149-1.37616-7.998925-7.998925-15.65381-16.25588-22.878646-25.200913-1.462169-1.806209-2.924338-3.612418-4.472517-5.762667-52.380056-65.539578-83.945706-148.539175-83.945706-238.763607h100.975675l-161.440666-242.117995L116.973525 511.724768h100.803655c0 106.050262 33.199839 204.445639 89.364333 285.897057 0.68808 1.204139 1.118129 2.494288 1.892219 3.526408 5.762666 8.428975 12.299422 16.08386 18.492138 23.824755 2.408278 2.838328 4.472517 5.762666 6.966806 8.945034 9.117054 11.009273 19.008198 21.502486 28.985351 31.823679 1.032119 1.032119 1.892219 1.892219 2.752318 2.838329 33.801908 33.887918 71.904314 62.2712 113.447118 85.149845 1.118129 0.60207 2.064239 1.118129 3.354388 1.806209 11.955382 6.450746 24.254804 12.385432 36.640236 17.804058 3.182368 1.376159 6.192716 2.752318 9.203064 4.042468 10.751243 4.558527 21.674506 8.342965 32.683779 12.127402 5.246607 1.806209 10.321193 3.526408 15.65381 5.246607 9.633114 2.752318 19.438248 5.246607 29.415401 7.482865 6.622766 1.548179 12.987502 3.268378 19.782288 4.472517 2.752318 0.68808 5.332617 1.548179 8.084935 1.806209 9.461094 1.720199 18.836178 2.580298 28.125252 3.698428 3.440398 0.60207 6.794786 1.204139 10.149173 1.548179 16.857949 1.634189 33.629888 2.666308 50.401828 2.666308 102.437844 0 202.55342-31.30762 288.391345-91.514582 27.351162-19.180218 34.059938-57.024593 14.96573-84.203736-19.266228-27.609192-56.938584-34.231958-84.289746-14.87972z m284.348878-314.108319c0-105.792232-32.769789-204.101599-88.676253-285.122967-0.860099-1.376159-1.376159-2.838328-2.064239-4.042468-7.224835-9.977154-14.621691-19.266228-22.276575-28.641311-0.860099-1.032119-1.720199-2.236259-2.494289-3.440398-51.433947-61.92716-115.683376-110.00672-188.361779-141.400349-2.150249-0.860099-3.956457-1.806209-6.106706-2.666309-11.697353-4.816557-23.566725-8.945034-35.694127-13.073511-4.128477-1.376159-8.514985-2.924338-12.815482-4.214488-10.493213-3.182368-20.986427-5.762666-31.65166-8.256954-5.934686-1.290149-11.955382-2.838328-17.890068-4.042468-2.924338-0.51606-5.590646-1.376159-8.687005-1.978229-7.998925-1.290149-15.82583-2.064239-23.824755-3.010348-5.590646-0.60207-10.923263-1.462169-16.513909-2.064238-13.417551-1.290149-26.749093-1.806209-40.080634-2.064239-2.408278 0-4.816557-0.34404-7.224836-0.34404-0.43005 0-0.860099 0.08601-1.290149 0.17202-102.351834 0.08601-202.29539 30.96358-287.961295 91.084532-27.351162 19.094208-34.059938 56.852574-14.793711 84.375756 19.008198 27.265153 56.938584 33.973928 84.375756 14.7077 66.141648-46.27335 143.378578-69.840075 222.593737-69.065985 11.353313 0.08601 22.706625 0.60207 33.715899 1.720198 3.440398 0.25803 6.708776 0.77409 10.149173 1.29015 9.117054 1.118129 18.148098 2.322269 27.093133 4.214487 3.870448 0.68808 7.826905 1.720199 11.525333 2.580298 8.859024 1.978229 17.460019 4.042467 25.975003 6.622766 2.838328 0.77409 5.418627 1.720199 7.998925 2.752318 9.891144 3.182368 19.524257 6.536756 28.813331 10.493214 1.032119 0.25803 1.978229 1.032119 2.924339 1.376159 56.508534 24.254804 105.964252 61.583121 144.668727 108.37253 0.08601 0.17202 0.25803 0.51606 0.602069 0.77409 54.358285 66.227658 87.042064 150.775433 87.128075 242.892084h-101.061686l161.698697 242.204005 161.268646-242.204005h-101.061685"
		fill="" p-id="3812"></path>
</svg>