<?xml version="1.0" standalone="no"?><!DOCTYPE svg PUBLIC "-//W3C//DTD SVG 1.1//EN" "http://www.w3.org/Graphics/SVG/1.1/DTD/svg11.dtd">
<svg class="icon" height="24" p-id="24775" t="1594984043186" version="1.1" viewBox="0 0 1024 1024" width="24" xmlns="http://www.w3.org/2000/svg">
	<defs>
		<style type="text/css"></style>
	</defs>
	<path
		d="M387.213134 0.107765H80.045463a76.791918 76.791918 0 0 0-76.791917 76.791917v307.167671a76.791918 76.791918 0 0 0 76.791917 76.791918h307.167671a76.791918 76.791918 0 0 0 76.791917-76.791918V76.899682a76.791918 76.791918 0 0 0-76.791917-76.791917z m25.597306 332.764976a76.791918 76.791918 0 0 1-76.791918 76.791918H131.240075a76.791918 76.791918 0 0 1-76.791918-76.791918V128.094294a76.791918 76.791918 0 0 1 76.791918-76.791918h204.778447a76.791918 76.791918 0 0 1 76.791918 76.791918zM387.213134 563.248494H80.045463a76.791918 76.791918 0 0 0-76.791917 76.791918v307.16767a76.791918 76.791918 0 0 0 76.791917 76.791918h307.167671a76.791918 76.791918 0 0 0 76.791917-76.791918V640.040412a76.791918 76.791918 0 0 0-76.791917-76.791918z m25.597306 332.764977a76.791918 76.791918 0 0 1-76.791918 76.791917H131.240075a76.791918 76.791918 0 0 1-76.791918-76.791917v-204.778447a76.791918 76.791918 0 0 1 76.791918-76.791918h204.778447a76.791918 76.791918 0 0 1 76.791918 76.791918zM702.315969 20.585609l-198.891066 198.635094a70.648564 70.648564 0 0 0 0 99.317547l198.891066 198.635094a69.880645 69.880645 0 0 0 99.061574 0l198.891067-198.635094a70.648564 70.648564 0 0 0 0-99.317547L801.377543 20.585609a69.880645 69.880645 0 0 0-99.061574 0z m231.655618 198.635094a70.392591 70.392591 0 0 1 0 99.317547l-132.594044 132.338071a69.880645 69.880645 0 0 1-99.061574 0l-132.594044-132.338071a70.392591 70.392591 0 0 1 0-99.317547l132.594044-132.338071a69.880645 69.880645 0 0 1 99.061574 0zM905.558578 563.248494h-307.167671a76.791918 76.791918 0 0 0-76.791917 76.791918v307.16767a76.791918 76.791918 0 0 0 76.791917 76.791918h307.167671a76.791918 76.791918 0 0 0 76.791918-76.791918V640.040412a76.791918 76.791918 0 0 0-76.791918-76.791918z m25.597306 332.764977a76.791918 76.791918 0 0 1-76.791918 76.791917h-204.778447a76.791918 76.791918 0 0 1-76.791918-76.791917v-204.778447a76.791918 76.791918 0 0 1 76.791918-76.791918h204.778447a76.791918 76.791918 0 0 1 76.791918 76.791918z"
		p-id="24776"></path>
</svg>